<?xml version="1.0" standalone="no"?>
<!DOCTYPE svg PUBLIC "-//W3C//DTD SVG 20010904//EN"
 "http://www.w3.org/TR/2001/REC-SVG-20010904/DTD/svg10.dtd">
<svg version="1.0" xmlns="http://www.w3.org/2000/svg"
 width="571.000000pt" height="250.000000pt" viewBox="0 0 571.000000 250.000000"
 preserveAspectRatio="xMidYMid meet">
<metadata>
Created by potrace 1.15, written by Peter Selinger 2001-2017
</metadata>
<g transform="translate(0.000000,250.000000) scale(0.100000,-0.100000)"
fill="#000000" stroke="none">
<path d="M1884 2446 c-3 -7 -4 -99 -2 -204 2 -136 7 -195 16 -204 21 -21 32 4
35 78 1 38 7 69 12 69 16 1 44 19 44 30 1 6 47 11 110 13 106 3 110 2 122 -20
6 -13 21 -34 33 -48 25 -28 42 -79 52 -155 8 -63 27 -110 63 -156 16 -19 36
-63 45 -97 8 -34 27 -80 42 -102 22 -34 32 -40 60 -40 l34 0 0 -84 c0 -65 -3
-85 -14 -88 -11 -2 -7 -13 15 -43 16 -22 37 -58 48 -80 10 -22 33 -64 50 -94
36 -60 36 -63 -4 -191 -13 -41 -31 -115 -40 -165 -9 -49 -23 -118 -31 -152
-22 -98 -18 -150 19 -236 38 -86 61 -117 90 -117 15 0 17 -4 11 -17 -4 -10
-10 -62 -12 -115 -4 -93 -3 -98 22 -123 35 -35 74 -33 128 8 50 37 101 129
104 188 1 29 8 45 28 60 40 32 97 153 103 218 6 68 -45 345 -87 471 -34 105
-34 112 4 177 20 34 40 72 45 85 5 13 20 37 34 54 13 16 29 39 36 52 10 19 9
22 -6 22 -16 0 -19 10 -20 85 -1 65 2 85 13 85 7 0 17 -7 22 -16 8 -14 13 -12
36 12 38 40 65 95 76 156 6 31 20 63 34 78 36 38 64 99 71 155 9 76 27 139 42
148 7 4 22 26 33 48 l20 39 95 0 c63 0 95 -4 95 -11 0 -6 7 -8 16 -5 19 7 44
-16 44 -41 0 -10 -10 -24 -21 -31 -16 -10 -19 -16 -10 -25 9 -9 14 -8 21 3 7
11 10 -1 10 -38 0 -45 3 -53 17 -50 9 2 20 14 24 28 9 31 11 363 3 384 -3 9
-15 16 -25 16 -15 0 -19 -7 -19 -40 0 -25 -5 -40 -12 -40 -8 0 -13 -13 -12
-36 1 -37 -15 -84 -28 -84 -4 0 -5 8 -2 18 5 16 5 16 -6 0 -18 -28 -151 -25
-192 4 -39 27 -81 27 -118 0 -29 -22 -33 -22 -479 -22 l-450 0 -36 24 c-31 21
-40 23 -73 14 -20 -6 -46 -17 -57 -24 -13 -10 -50 -14 -116 -14 -88 0 -97 -2
-102 -20 -3 -11 -13 -20 -24 -20 -14 0 -15 -2 -4 -9 7 -5 9 -11 4 -14 -5 -3
-14 3 -21 14 -7 10 -9 19 -5 18 31 -5 40 2 35 29 -3 15 -10 30 -16 34 -6 5 -7
8 -1 8 6 0 10 11 10 25 0 14 -3 25 -6 25 -4 0 -9 11 -11 25 -3 14 -1 25 3 25
5 0 9 5 9 10 0 6 -7 10 -15 10 -8 0 -15 9 -15 20 0 23 -37 28 -46 6z m1386
-251 c0 -24 -14 -59 -46 -110 -25 -42 -55 -97 -68 -124 -12 -27 -41 -70 -65
-97 -24 -27 -54 -70 -67 -96 -13 -25 -33 -50 -44 -53 -12 -4 -37 -20 -56 -37
-45 -39 -54 -19 -23 51 29 69 22 125 -21 164 -46 41 -98 38 -139 -8 -37 -43
-40 -81 -11 -156 29 -73 20 -90 -26 -49 -20 17 -47 35 -59 40 -14 5 -32 27
-44 54 -11 25 -39 67 -64 93 -24 26 -58 77 -75 113 -18 36 -47 92 -67 125 -32
56 -44 103 -28 118 3 4 208 7 455 7 l448 0 0 -35z"/>
</g>
</svg>
